# This file uses centimeters as units for non-parametric coordinates.

mtllib OrigamiPaper1.mtl
g default
v -0.618597 0.142374 0.231833
v 0.281258 0.142374 0.668022
v -0.618597 0.235702 0.231833
v 0.281258 0.235702 0.668022
v -0.182409 0.235702 -0.668022
v 0.717447 0.235702 -0.231833
v -0.182409 0.142374 -0.668022
v 0.717447 0.142374 -0.231833
v 0.281258 0.152744 0.668022
v 0.717447 0.152744 -0.231833
v -0.182409 0.152744 -0.668022
v -0.618597 0.152744 0.231833
v 0.280475 0.163219 0.665766
v 0.715191 0.163219 -0.231051
v -0.181626 0.163219 -0.665767
v -0.616342 0.163219 0.231051
v 0.281258 0.173484 0.668022
v 0.717447 0.173484 -0.231833
v -0.182409 0.173484 -0.668022
v -0.618597 0.173484 0.231833
v 0.280475 0.183888 0.665766
v 0.715191 0.183888 -0.231051
v -0.181626 0.183888 -0.665767
v -0.616342 0.183888 0.231051
v 0.281258 0.194223 0.668022
v 0.717447 0.194223 -0.231833
v -0.182409 0.194223 -0.668022
v -0.618597 0.194223 0.231833
v 0.280475 0.204558 0.665766
v 0.715191 0.204558 -0.231051
v -0.181626 0.204558 -0.665767
v -0.616342 0.204558 0.231051
v 0.281258 0.214962 0.668022
v 0.717447 0.214962 -0.231833
v -0.182409 0.214962 -0.668022
v -0.618597 0.214962 0.231833
v 0.280475 0.225227 0.665766
v 0.715191 0.225227 -0.231051
v -0.181626 0.225227 -0.665767
v -0.616342 0.225227 0.231051
vt 0.000021 0.992307
vt 0.450948 0.994072
vt 0.450933 0.998919
vt 0.906098 0.956763
vt 0.905094 1.000000
vt 0.454605 0.954836
vt 0.000000 0.949128
vt 0.454625 0.949986
vt 0.454789 0.911645
vt 0.000000 0.910236
vt 0.451092 0.955786
vt 0.000210 0.954026
vt 0.000000 0.914992
vt 0.451080 0.960535
vt 0.454774 0.916402
vt 0.000196 0.958776
vt 0.000000 0.920310
vt 0.451063 0.965379
vt 0.454754 0.921255
vt 0.000174 0.963621
vt 0.000000 0.924176
vt 0.451040 0.970131
vt 0.454736 0.926010
vt 0.000148 0.968370
vt 0.000000 0.929916
vt 0.451024 0.974944
vt 0.454711 0.930832
vt 0.000123 0.973183
vt 0.000000 0.933806
vt 0.451002 0.979728
vt 0.454693 0.935619
vt 0.000097 0.977964
vt 0.000000 0.939522
vt 0.450986 0.984508
vt 0.454668 0.940409
vt 0.000072 0.982745
vt 0.000000 0.943435
vt 0.450964 0.989323
vt 0.454650 0.945227
vt 0.000046 0.987558
vt 0.455118 0.455118
vt 0.455118 0.910236
vt 0.000000 0.455118
vt 0.000000 0.910236
vt 0.455118 0.455118
vt 0.000000 0.455118
vt 0.455118 0.000000
vt 0.000000 0.000000
vt 0.905094 0.994689
vt 0.905094 0.990829
vt 0.905094 0.985096
vt 0.905094 0.981212
vt 0.905094 0.975503
vt 0.905094 0.971596
vt 0.905094 0.965910
vt 0.905094 0.961980
vt 0.905094 0.956768
vt 0.000000 0.953064
vt 0.906119 0.951912
vt 0.000000 0.997152
vt 0.906145 0.947156
vt 0.906170 0.942337
vt 0.906196 0.937549
vt 0.906221 0.932761
vt 0.906247 0.927942
vt 0.906272 0.923186
vt 0.906295 0.918336
vt 0.906309 0.913579
vn -0.436189 0.000016 0.899855
vn -0.436189 0.000016 0.899855
vn -0.430632 -0.159108 0.888392
vn -0.430632 -0.159108 0.888392
vn -0.000000 1.000000 0.000000
vn -0.000000 1.000000 0.000000
vn -0.000000 1.000000 0.000000
vn -0.000000 1.000000 0.000000
vn 0.436189 0.000016 -0.899855
vn 0.436189 0.000016 -0.899855
vn 0.430631 -0.159116 -0.888391
vn 0.430631 -0.159116 -0.888391
vn -0.000000 -1.000000 0.000000
vn -0.000000 -1.000000 0.000000
vn -0.000000 -1.000000 0.000000
vn -0.000000 -1.000000 0.000000
vn 0.899855 0.000016 0.436189
vn 0.899855 0.000016 0.436189
vn 0.888391 -0.159115 0.430632
vn 0.888391 -0.159115 0.430632
vn -0.899855 0.000016 -0.436189
vn -0.899855 0.000016 -0.436189
vn -0.888391 -0.159116 -0.430631
vn -0.888391 -0.159116 -0.430631
vn 0.899855 0.000000 0.436189
vn 0.899855 0.000000 0.436189
vn 0.896951 0.080274 0.434781
vn 0.896951 0.080274 0.434781
vn 0.436189 0.000000 -0.899855
vn 0.436189 0.000000 -0.899855
vn 0.434781 0.080275 -0.896951
vn 0.434781 0.080275 -0.896951
vn -0.899855 0.000000 -0.436189
vn -0.899855 0.000000 -0.436189
vn -0.896951 0.080275 -0.434781
vn -0.896951 0.080275 -0.434781
vn -0.436189 0.000000 0.899855
vn -0.436189 0.000000 0.899855
vn -0.434781 0.080271 0.896952
vn -0.434781 0.080271 0.896952
vn 0.899855 -0.000016 0.436189
vn 0.899855 -0.000016 0.436189
vn 0.436189 -0.000016 -0.899855
vn 0.436189 -0.000016 -0.899855
vn -0.899855 -0.000016 -0.436189
vn -0.899855 -0.000016 -0.436189
vn -0.436189 -0.000016 0.899855
vn -0.436189 -0.000016 0.899855
vn 0.899855 0.000011 0.436189
vn 0.899855 0.000011 0.436189
vn 0.436189 0.000011 -0.899855
vn 0.436189 0.000011 -0.899855
vn -0.899855 0.000011 -0.436189
vn -0.899855 0.000011 -0.436189
vn -0.436189 0.000011 0.899855
vn -0.436189 0.000011 0.899855
vn 0.899855 -0.000005 0.436189
vn 0.899855 -0.000005 0.436189
vn 0.436189 -0.000005 -0.899855
vn 0.436189 -0.000005 -0.899855
vn -0.899855 -0.000005 -0.436189
vn -0.899855 -0.000005 -0.436189
vn -0.436189 -0.000005 0.899855
vn -0.436189 -0.000005 0.899855
vn 0.899855 0.000000 0.436189
vn 0.899855 0.000000 0.436189
vn 0.436189 -0.000000 -0.899855
vn 0.436189 -0.000000 -0.899855
vn -0.899855 -0.000000 -0.436189
vn -0.899855 -0.000000 -0.436189
vn -0.436189 0.000000 0.899855
vn -0.436189 0.000000 0.899855
vn 0.899855 0.000005 0.436189
vn 0.899855 0.000005 0.436189
vn 0.436189 0.000005 -0.899855
vn 0.436189 0.000005 -0.899855
vn -0.899855 0.000005 -0.436189
vn -0.899855 0.000005 -0.436189
vn -0.436189 0.000005 0.899855
vn -0.436189 0.000005 0.899855
vn 0.899855 -0.000011 0.436189
vn 0.899855 -0.000011 0.436189
vn 0.436189 -0.000011 -0.899855
vn 0.436189 -0.000011 -0.899855
vn -0.899855 -0.000011 -0.436189
vn -0.899855 -0.000011 -0.436189
vn -0.436189 -0.000011 0.899855
vn -0.436189 -0.000011 0.899855
s 1
g pasted__pasted__pCube1 pasted__group group1
usemtl initialShadingGroup
f 40/1/1 37/2/2 4/3/3 3/60/4
s off
f 3/47/5 4/45/6 6/46/7 5/48/8
s 2
f 38/7/9 39/8/10 5/6/11 6/58/12
s off
f 7/43/13 8/41/14 2/42/15 1/44/16
s 3
f 37/2/17 38/49/18 6/5/19 4/3/20
s 4
f 39/8/21 40/59/22 3/4/23 5/6/24
s 3
f 2/11/25 8/57/26 10/56/27 9/14/28
s 2
f 8/10/29 7/9/30 11/15/31 10/13/32
s 4
f 7/9/33 1/68/34 12/67/35 11/15/36
s 1
f 1/12/37 2/11/38 9/14/39 12/16/40
s 3
f 9/14/28 10/56/27 14/55/41 13/18/42
s 2
f 10/13/32 11/15/31 15/19/43 14/17/44
s 4
f 11/15/36 12/67/35 16/66/45 15/19/46
s 1
f 12/16/40 9/14/39 13/18/47 16/20/48
s 3
f 13/18/42 14/55/41 18/54/49 17/22/50
s 2
f 14/17/44 15/19/43 19/23/51 18/21/52
s 4
f 15/19/46 16/66/45 20/65/53 19/23/54
s 1
f 16/20/48 13/18/47 17/22/55 20/24/56
s 3
f 17/22/50 18/54/49 22/53/57 21/26/58
s 2
f 18/21/52 19/23/51 23/27/59 22/25/60
s 4
f 19/23/54 20/65/53 24/64/61 23/27/62
s 1
f 20/24/56 17/22/55 21/26/63 24/28/64
s 3
f 21/26/58 22/53/57 26/52/65 25/30/66
s 2
f 22/25/60 23/27/59 27/31/67 26/29/68
s 4
f 23/27/62 24/64/61 28/63/69 27/31/70
s 1
f 24/28/64 21/26/63 25/30/71 28/32/72
s 3
f 25/30/66 26/52/65 30/51/73 29/34/74
s 2
f 26/29/68 27/31/67 31/35/75 30/33/76
s 4
f 27/31/70 28/63/69 32/62/77 31/35/78
s 1
f 28/32/72 25/30/71 29/34/79 32/36/80
s 3
f 29/34/74 30/51/73 34/50/81 33/38/82
s 2
f 30/33/76 31/35/75 35/39/83 34/37/84
s 4
f 31/35/78 32/62/77 36/61/85 35/39/86
s 1
f 32/36/80 29/34/79 33/38/87 36/40/88
s 3
f 33/38/82 34/50/81 38/49/18 37/2/17
s 2
f 34/37/84 35/39/83 39/8/10 38/7/9
s 4
f 35/39/86 36/61/85 40/59/22 39/8/21
s 1
f 36/40/88 33/38/87 37/2/2 40/1/1
